Coordinates
nRows=8
nColumns=24

# SIMM Motion File Header:
name Coordinates
datacolumns 24
datarows 8
otherdata 1
range 0.92000000000000004000 0.92700000000000005000
endheader
time	pelvis_tx	pelvis_ty	pelvis_tz	pelvis_tilt	pelvis_list	pelvis_rotation	hip_flexion_r	hip_adduction_r	hip_rotation_r	knee_angle_r	ankle_angle_r	subtalar_angle_r	mtp_angle_r	hip_flexion_l	hip_adduction_l	hip_rotation_l	knee_angle_l	ankle_angle_l	subtalar_angle_l	mtp_angle_l	lumbar_extension	lumbar_bending	lumbar_rotation
      0.92000000000000004000	      0.60012764152805209000	      1.03806473205108580000	      0.04058205612272083900	      4.99345335606989420000	     -1.11374661226299070000	      2.25205669968233300000	      4.67832442627715220000	      2.15546300798358550000	     -6.01553178151646150000	    -16.54918095687600400000	      6.42059911958946030000	      1.27217116555043490000	      1.17000695941190050000	     11.59922040993651900000	     -5.58945091729227440000	     -4.06480805203660630000	    -68.63207075573758700000	     -0.68227736270593953000	     -2.04033006190939490000	     -2.03876704748090140000	    -15.47480891044344300000	      3.77240115463098300000	     -1.78604293417781970000
      0.92100000000000004000	      0.60003961403524420000	      1.03821493290158310000	      0.04071864664712523300	      4.99716637163204160000	     -1.09724708384978830000	      2.22769818274900410000	      4.56996330686181020000	      2.15145177471324180000	     -5.98258500852797240000	    -16.46900953434397200000	      6.42119115487859200000	      1.25012290398736690000	      1.20950185732387250000	     11.70987255119802100000	     -5.55666408378760760000	     -4.05948062327909300000	    -68.59531672922692300000	     -0.60113853467815703000	     -2.03712809403400110000	     -2.05292978835771760000	    -15.48271088152936200000	      3.74499574203683360000	     -1.74775806150966680000
      0.92200000000000004000	      0.59995113600646122000	      1.03836440836811690000	      0.04085467024562960300	      5.00085874417648670000	     -1.08064880098733630000	      2.20325743437066860000	      4.46172575479772520000	      2.14727179385892300000	     -5.94955382126380170000	    -16.38895353322643400000	      6.42101997294110220000	      1.22721198777966920000	      1.25011155845142150000	     11.82021721192366600000	     -5.52352842931601630000	     -4.05391387075859200000	    -68.55708686590958200000	     -0.52055940871220296000	     -2.03375733867333560000	     -2.06687000225511900000	    -15.49064517787686100000	      3.71748550580702460000	     -1.70953427311737860000
      0.92300000000000004000	      0.59986130636975310000	      1.03851170768276010000	      0.04098899306643390100	      5.00448918766782300000	     -1.06375425477713610000	      2.17856999165731140000	      4.35385890478741190000	      2.14258557025267750000	     -5.91626939117258570000	    -16.30924379635239400000	      6.41855913932374820000	      1.20171310763808250000	      1.29406566922570270000	     11.92963943104174100000	     -5.48934631194365070000	     -4.04762914694912720000	    -68.51442949217228300000	     -0.44165938893173445000	     -2.02988022085685580000	     -2.08014263521427490000	    -15.49867645000910200000	      3.68966079867023610000	     -1.67149373755268480000
      0.92400000000000004000	      0.59977147673304509000	      1.03865900699740330000	      0.04112331588723820000	      5.00811963115915940000	     -1.04685970856693580000	      2.15388254894395460000	      4.24599205477709770000	      2.13789934664643200000	     -5.88298496108136870000	    -16.22953405947835400000	      6.41609830570639340000	      1.17621422749649550000	      1.33801977999998400000	     12.03906165015981400000	     -5.45516419457128520000	     -4.04134442313966250000	    -68.47177211843497000000	     -0.36275936915126589000	     -2.02600310304037600000	     -2.09341526817343080000	    -15.50670772214134300000	      3.66183609153344710000	     -1.63345320198799100000
      0.92500000000000004000	      0.59968022373682284000	      1.03880355126008880000	      0.04125571629700360000	      5.01163287542157490000	     -1.02948714270131900000	      2.12895554523637910000	      4.13865955054785230000	      2.13244479980991960000	     -5.84954986378942720000	    -16.15083000614205100000	      6.42049092151451720000	      1.15182784416870840000	      1.37062608483844440000	     12.14749269376418000000	     -5.41970969074405320000	     -4.03439618787201230000	    -68.42421703559671200000	     -0.28576697878960905000	     -2.02187279011065880000	     -2.10595105663231590000	    -15.51477935240521900000	      3.63349587678265170000	     -1.59568991323226910000
      0.92600000000000005000	      0.59958849628742927000	      1.03894717717212170000	      0.04138747590308936700	      5.01510705327434980000	     -1.01195523695056360000	      2.10394868786406430000	      4.03150516157896370000	      2.12673414522998480000	     -5.81606454409724450000	    -16.07246118065165800000	      6.42716802046446390000	      1.12781229311218740000	      1.39944978769830270000	     12.25559334553064200000	     -5.38383105809853290000	     -4.02722678211830050000	    -68.37502938305814800000	     -0.20941046490088858000	     -2.01765807880986260000	     -2.11824123025777760000	    -15.52286443537964000000	      3.60498382616052070000	     -1.55801904007953750000
      0.92700000000000005000	      0.59949631385676616000	      1.03908981482224940000	      0.04151859149536045500	      5.01853626766446850000	     -0.99425780024498667000	      2.07887736165608090000	      3.92454719392572350000	      2.12075270000047620000	     -5.78258140544138220000	    -15.99453835090168000000	      6.43792212893699920000	      1.10505220097976430000	      1.42162519102166110000	     12.36336744579786800000	     -5.34754654792687220000	     -4.01987918905129420000	    -68.32422343108369500000	     -0.13367733582291977000	     -2.01345414670882760000	     -2.13031975777084530000	    -15.53095253774558600000	      3.57629395740305790000	     -1.52045708730937430000
